<?xml version="1.0" encoding="utf-8"?>
<!-- Generator: Adobe Illustrator 19.2.0, SVG Export Plug-In . SVG Version: 6.00 Build 0)  -->
<svg version="1.1" id="Layer_1" xmlns="http://www.w3.org/2000/svg" xmlns:xlink="http://www.w3.org/1999/xlink" x="0px" y="0px"
	 viewBox="0 0 130 130" style="enable-background:new 0 0 130 130;" xml:space="preserve">
<style type="text/css">
	.st0{fill:#020303;}
	.st1{fill:#FBFAFA;}
	.st2{fill:#DBDAD9;}
	.st3{fill:#DFDDDD;}
	.st4{fill:#E0DEDE;}
	.st5{fill:#EAE9E9;}
	.st6{fill:#D5D4D4;}
	.st7{fill:#D5D4D3;}
	.st8{fill:#DFDEDE;}
	.st9{fill:#434443;}
	.st10{fill:#393A3A;}
</style>
<rect class="st0" width="130" height="130"/>
<g>
	<path class="st1" d="M65.2,74.1c-6.8,0-13.6-0.1-20.5,0c-4.5,0.1-7.1-1.9-8.2-6.2c-2.2-8.4-1.6-16.9-1.2-25.3
		c0.2-4.3,3.5-7.4,8-7.5c14.5-0.3,28.9-0.2,43.4,0c4.5,0.1,8.3,3.8,8.3,8.3c0,7.6,0.7,15.3-0.9,22.8c-1.4,6.2-3.2,7.9-9.4,7.9
		C78.1,74.1,71.7,74.1,65.2,74.1z M65.5,60.2c-7.5,0-15,0-22.5,0c-1.1,0-3-0.7-3,1.4c0,1.6,1.6,1.4,2.7,1.4c15,0,29.9,0,44.9,0
		c1.1,0,2.6,0.1,2.6-1.5c-0.1-1.7-1.7-1.3-2.7-1.3C80.1,60.1,72.8,60.2,65.5,60.2z M41,67.1c1,2.8,2.8,2.8,4.7,2.8
		c12.9,0,25.9,0,38.8,0c1.9,0,4,0.1,4.4-2.8C72.9,67.1,57.2,67.1,41,67.1z M85.7,50.6c2.1-0.9-2.2-5.1,1.8-5.3
		c-2.1-0.7-4.3-1.2-5.5-3.3c-0.8,2-2.3,2.3-4.4,2.7c-1.6,0.3,3.7,3.6-0.5,5C79.7,50.5,82,54.3,85.7,50.6z"/>
	<path class="st2" d="M65,81.1c-1.4,0-2.1-0.8-2.2-2.1c-0.1-1.6,0.8-2.5,2.3-2.4c1.5,0,2.3,1,2.2,2.6C67.1,80.5,66.3,81.1,65,81.1z"
		/>
	<path class="st3" d="M67.2,86.2c-0.2,1.4-1.1,1.9-2.4,1.8c-1.7-0.1-2.1-1.3-2-2.8c0.2-1.4,1.2-2.1,2.4-1.9
		C66.7,83.6,67.5,84.6,67.2,86.2z"/>
	<path class="st4" d="M65.3,95c-1.6,0-2.4-0.8-2.5-2.1c-0.2-1.6,0.8-2.6,2.2-2.6c1.4,0,2.4,1,2.2,2.6C67.2,94.2,66.4,95,65.3,95z"/>
	<path class="st5" d="M56,78.6c-0.3,1.4-1,2.3-2.2,2.4c-1.5,0.2-2.6-0.6-2.7-2.1c-0.1-1.3,0.9-2.1,2.1-2.3
		C54.8,76.4,55.5,77.5,56,78.6z"/>
	<path class="st5" d="M79,79c-0.2,1.2-1,2-2.3,2.1c-1.5,0.1-2.6-0.8-2.6-2.3c0-1.3,1.1-2.2,2.2-2.2C77.8,76.5,78.8,77.4,79,79z"/>
	<path class="st6" d="M46.5,95.1c-1.5-0.4-2.5-1.1-2.3-2.7c0.2-1.3,1.3-2.1,2.4-2.1c1.3,0,2.5,1,2.5,2.5
		C48.9,94.3,47.8,94.9,46.5,95.1z"/>
	<path class="st7" d="M86,92.9c-0.4,1.3-1.2,2.2-2.8,2.1c-1.3-0.1-2.1-1-2.2-2.2c0-1.5,1.1-2.5,2.5-2.5C84.9,90.3,85.9,91.3,86,92.9
		z"/>
	<path class="st8" d="M51.2,83.3c1.4,0.4,2.5,1.1,2.3,2.7c-0.2,1.2-0.9,2.1-2.3,2.1c-1.6-0.1-2.3-1-2.2-2.6
		C49,84,50.1,83.6,51.2,83.3z"/>
	<path class="st8" d="M78.9,83.3c1.2,0.3,2.2,0.8,2.3,2.2c0.1,1.6-0.7,2.5-2.3,2.5c-1.4,0-2.1-0.9-2.3-2.1
		C76.4,84.4,77.6,83.7,78.9,83.3z"/>
	<path class="st9" d="M65.5,60.2c7.3,0,14.6,0,22,0c1.1,0,2.6-0.5,2.7,1.3c0.1,1.7-1.4,1.5-2.6,1.5c-15,0-29.9,0-44.9,0
		c-1.1,0-2.7,0.2-2.7-1.4c0-2.2,1.9-1.4,3-1.4C50.5,60.1,58,60.2,65.5,60.2z"/>
	<path class="st10" d="M41,67.1c16.2,0,32,0,47.9,0c-0.5,2.9-2.5,2.8-4.4,2.8c-12.9,0-25.9,0-38.8,0C43.8,69.9,42,70,41,67.1z"/>
	<rect x="74.9" y="39.3" class="st1" width="13.5" height="16.3"/>
	<path class="st0" d="M76.1,44.1c1.6,0.6,2.9,1.1,4.4,1.7c-0.1-1.6-0.2-3-0.4-4.5c0.9,0,1.7,0,2.8,0c-0.1,1.4-0.2,2.9-0.2,4.5
		c1.5-0.6,2.9-1.1,4.4-1.7c0.3,1,0.6,1.8,0.9,2.9c-1.5,0.4-3,0.7-4.6,1.2c0.8,0.9,1.5,1.7,2.3,2.5c0.7,0.7,0.7,1.3-0.2,1.9
		c-0.8,0.5-1.4,0.9-2.1-0.2c-0.6-1-1.2-1.9-1.9-3c-0.9,1.3-1.6,2.5-2.5,3.9c-0.8-0.6-1.5-1-2.4-1.6c1-1.2,2-2.3,3-3.6
		c-1.5-0.4-2.9-0.7-4.5-1.1C75.5,46,75.8,45.1,76.1,44.1z"/>
</g>

</svg>
