<?xml version="1.0" encoding="utf-8"?>
<!-- Generator: Adobe Illustrator 19.2.0, SVG Export Plug-In . SVG Version: 6.00 Build 0)  -->
<svg version="1.1" id="Layer_1" xmlns="http://www.w3.org/2000/svg" xmlns:xlink="http://www.w3.org/1999/xlink" x="0px" y="0px"
	 viewBox="0 0 130 130" style="enable-background:new 0 0 130 130;" xml:space="preserve">
<style type="text/css">
	.st0{fill:#020303;}
	.st1{fill:#FFFFFF;}
</style>
<rect class="st0" width="130" height="130"/>
<g>
	<path class="st1" d="M73.7,59.2c5.4-3.2,10.6-6.3,17-4.3c4.9,1.5,7.3,5.1,8,9.8c0.8,5.1,0.3,10.2-3.9,13.8c-3,2.5-6.5,2.3-9.5-0.5
		c-1.7-1.6-3.1-3.4-4.9-5c-4.3-3.9-5.6-3.7-9.1,0.5c1.5,3.9,3.3,7.5,4.3,11.3c1.4,5.4-1.7,11-6.6,13.1c-5.7,2.5-14.8,0.9-17.6-3.2
		c-2.2-3.3-1.9-6.6,0.9-9.5c1.5-1.6,3.2-2.9,4.7-4.5c4-4.3,3.9-5.7-0.3-9.3c-3.8,1.5-7.4,3.3-11.2,4.3C40,77,34.6,74.1,32.3,69.1
		c-2.6-5.7-1.1-14.7,3.1-17.6c3.3-2.2,6.6-2,9.5,0.8c1.7,1.6,3.1,3.5,4.9,5c4.1,3.7,5.5,3.5,8.9-0.5c-1.5-4-3.2-7.8-4.2-11.7
		c-1.4-5.4,1.8-10.9,6.9-12.9c6.1-2.4,14.8-0.7,17.4,3.6c1.9,3.2,1.7,6.4-1,9.1c-1.6,1.7-3.5,3.1-5,4.9C69,53.9,69.1,55.1,73.7,59.2
		z M64.9,57c-4.6,0-8.1,3.7-8,8.4c0.2,4.5,3.6,7.7,8.1,7.7c4.7,0,8.1-3.6,7.9-8.3C72.8,60.2,69.4,56.9,64.9,57z"/>
	<path class="st1" d="M64.9,60.2c2.7,0,4.8,1.9,4.8,4.6c0.1,2.9-1.9,5-4.8,5c-2.7,0-4.8-1.9-4.9-4.6C60.1,62.4,62.2,60.2,64.9,60.2z
		"/>
</g>
</svg>
