<?xml version="1.0" encoding="utf-8"?>
<!-- Generator: Adobe Illustrator 19.2.0, SVG Export Plug-In . SVG Version: 6.00 Build 0)  -->
<svg version="1.1" id="Layer_1" xmlns="http://www.w3.org/2000/svg" xmlns:xlink="http://www.w3.org/1999/xlink" x="0px" y="0px"
	 viewBox="0 0 130 130" style="enable-background:new 0 0 130 130;" xml:space="preserve">
<style type="text/css">
	.st0{fill:#020303;}
	.st1{fill:#FFFFFF;}
</style>
<rect class="st0" width="130" height="130"/>
<g>
	<path class="st1" d="M48.6,74.3c11,0,21.9,0,32.8,0c0,0.8,0,1.6,0,2.4c0,2.3-0.1,4.6,0,6.9c0.1,2.3-0.8,4.2-2.4,5.9
		c-1.8,2-4,3.5-6.5,4.5c-0.4,0.1-0.8,0.2-1.2,0.2c-4.1,0-8.2,0-12.3,0c-0.9,0-1.8-0.2-2.6-0.6c-2.4-1.1-4.5-2.6-6.1-4.7
		c-1.2-1.5-1.8-3.2-1.8-5.1c0-3,0-6,0-9.1C48.6,74.6,48.6,74.4,48.6,74.3z"/>
	<path class="st1" d="M68.6,69.1c-2.4,0-4.7,0-7.1,0c0-0.2,0-0.3,0-0.5c0-8.8,0-17.6,0-26.3c0-7.1,0-14.2,0-21.2
		c0-1.7,1.2-2.8,2.5-3.1c1.5-0.4,2.9-0.1,4,1.1c0.5,0.5,0.7,1.1,0.7,1.8c0,4.5,0,8.9,0,13.4c0,9.9,0,19.9,0,29.8c0,0.8,0,1.6,0,2.5
		C68.5,67.4,68.6,68.2,68.6,69.1z"/>
	<path class="st1" d="M77.4,69.1c-2.4,0-4.7,0-7.1,0c0-0.2,0-0.3,0-0.4c0-10.5,0-21,0-31.5c0-5.4,0-10.7,0-16.1
		c0-1.6,0.9-2.7,2.3-3.2c1.3-0.4,2.5-0.2,3.7,0.6c0.7,0.6,1.1,1.3,1.1,2.3c0,5.4,0,10.8,0,16.3c0,10.5,0,21,0,31.4
		C77.4,68.7,77.4,68.9,77.4,69.1z"/>
	<path class="st1" d="M59.7,69.1c-2.4,0-4.7,0-7.1,0c0-0.2,0-0.4,0-0.5c0-4.6,0-9.3,0-13.9c0-10.4,0-20.7,0-31.1c0-0.8,0-1.6,0-2.3
		c-0.1-1.6,0.8-2.7,2.2-3.2c1.5-0.5,3.3-0.1,4.3,1.1c0.4,0.6,0.6,1.2,0.6,1.9c0,11.1,0,22.1,0,33.2c0,4.8,0,9.7,0,14.5
		C59.7,68.8,59.7,68.9,59.7,69.1z"/>
	<path class="st1" d="M81.4,72.9c-10.9,0-21.8,0-32.7,0c0-0.7,0.4-1.3,0.9-1.7c0.5-0.4,1-0.5,1.6-0.5c3.8,0,7.5,0,11.3,0
		c3.6,0,7.2,0,10.8,0c1.9,0,3.7,0,5.6,0c1.3,0,2.3,0.8,2.5,1.9C81.4,72.7,81.4,72.8,81.4,72.9z"/>
	<path class="st1" d="M72.1,105.4c0,0.7,0.1,1.3,0,1.9c-0.2,1.1-1.1,1.9-2.2,1.9c-3.2,0-6.5,0-9.7,0c-1.4,0-2.6-1.3-2.3-3
		C62.6,105.9,67.4,105.7,72.1,105.4z"/>
	<path class="st1" d="M57.8,98.6c0-1,0-2,0-3c4.8,0,9.5,0,14.3,0c0,0.7,0,1.3,0,2c0,0.1-0.2,0.2-0.4,0.2c-1.2,0.1-2.3,0.1-3.5,0.2
		c-2.4,0.1-4.8,0.2-7.2,0.4C60.1,98.5,59,98.6,57.8,98.6z"/>
	<path class="st1" d="M72.2,103.3c0,0.4,0,0.7,0,1c-4.8,0.2-9.5,0.5-14.3,0.7c0-0.1-0.1-0.1-0.1-0.1c0-1.1-0.1-0.9,0.8-0.9
		c2.3-0.1,4.7-0.2,7-0.4C67.8,103.5,70,103.4,72.2,103.3z"/>
	<path class="st1" d="M57.8,102.9c0-0.3,0-0.7,0-1c4.8-0.2,9.5-0.5,14.3-0.7c0,0.4,0,0.7,0,1C67.4,102.4,62.7,102.7,57.8,102.9z"/>
	<path class="st1" d="M72.2,99c0,0.3,0,0.7,0,1c-4.8,0.2-9.5,0.5-14.3,0.7c0-0.4,0-0.7,0-1C62.6,99.5,67.4,99.2,72.2,99z"/>
	<path class="st1" d="M67.8,110.4c0,0.4,0,0.9,0,1.3c0,0.3-0.2,0.6-0.6,0.6c-1.5,0-2.9,0-4.4,0c-0.4,0-0.6-0.3-0.6-0.6
		c0-0.4,0-0.8,0-1.3C64.1,110.4,65.9,110.4,67.8,110.4z"/>
</g>
</svg>
